# xmcd
#
# Track frame offsets: 
#        150
#        13283
#        28425
#        45234
#        62616
#        76314
#        90494
#        106965
#        120068
#        141671
#        158868
#        173618
#        190748
#        208348
#
# Disc length: 2989 seconds
#
# Revision: 5
# Processed by: cddbd v1.5.2PL0 Copyright (c) Steve Scherf et al.
# Submitted via: ExactAudioCopy v0.95a4
#
DISCID=b60bab0e
DTITLE=The Flatlanders - Wheels Of Fortune
DYEAR=2004
DGENRE=Country
TTITLE0=Baby Do You Love Me Still?
TTITLE1=Wheels Of Fortune
TTITLE2=Midnight Train
TTITLE3=Wishin' For You
TTITLE4=Eggs Of Your Chickens
TTITLE5=I'm Gonna Strangle You Shorty
TTITLE6=Back To My Old Molehill
TTITLE7=Deep Eddy Blues
TTITLE8=Neon Of Nashville
TTITLE9=Once Followed By The Wind
TTITLE10=Go To Sleep Alone
TTITLE11=Indian Cowboy
TTITLE12=Whistle Blues
TTITLE13=See The Way
EXTD=
EXTT0=
EXTT1=
EXTT2=
EXTT3=
EXTT4=
EXTT5=
EXTT6=
EXTT7=
EXTT8=
EXTT9=
EXTT10=
EXTT11=
EXTT12=
EXTT13=
PLAYORDER=
